# xmcd CD database file
#
# Track frame offsets:
#	150
#	15393
#	30339
#	54813
#	65771
#	77980
#	97052
#	111850
#	125268
#	137907
#	152742
#	165948
#	178856
#	197977
#	217199
#	231781
#	241372
#	257757
#	273655
#
# Disc length: 3969 seconds
#
# Revision: 0
# Processed by: cddbd v1.5.2PL0 Copyright (c) Steve Scherf et al.
# Submitted via: CDex 1.70beta2
#
DISCID=0d0f7f13
DTITLE=Various Artist - West Coast - A Nice Day
DYEAR=1900
DGENRE=Jazz
TTITLE0=Stan Getz - Love Is Here to Stay
TTITLE1=Jimmy Guiffre and Marty Paich - Tenors West
TTITLE2=Gerry Mulligan - I Know, I Don't Know
TTITLE3=Leith Stevens - Windswept
TTITLE4=Barney Kessel - Speak Low
TTITLE5=John Lewis and Bill Perkins - Easy Living
TTITLE6=Shelley Manne - Summer Night
TTITLE7=Frank Rosolino - Moonlight in Vermont
TTITLE8=Howard Rumsey - If I Should Lose You
TTITLE9=Bud Shank and Bill Perkins - A Sinner Kissed an Angel
TTITLE10=Bobby Scott - Table Cloth Stomp
TTITLE11=Chico Hamilton - A Nice Day
TTITLE12=Stan Kenton - I'm Glad There Is You
TTITLE13=Chet Baker and Art Pepper - Little Girl
TTITLE14=Howard Rumsey - Isn't It Romantic?
TTITLE15=Chico Hamilton - The Morning After
TTITLE16=Jack Sheldon - What Is There to Say?
TTITLE17=Shorty Rogers - Pink Squirrel
TTITLE18=Frank Morgan - The Nearness of You
EXTD=
EXTT0=
EXTT1=
EXTT2=
EXTT3=
EXTT4=
EXTT5=
EXTT6=
EXTT7=
EXTT8=
EXTT9=
EXTT10=
EXTT11=
EXTT12=
EXTT13=
EXTT14=
EXTT15=
EXTT16=
EXTT17=
EXTT18=
PLAYORDER=
